<svg xmlns="http://www.w3.org/2000/svg" viewBox="0 0 17.5 14.66"><title>twitter</title><path d="M11.28.15A3.28,3.28,0,0,1,15,1.3c.69-.23,1.37-.47,2.07-.69a2.25,2.25,0,0,1-.88,1.73,1.64,1.64,0,0,0,1.34-.48,2.9,2.9,0,0,1-1.61,2c-.24,6.59-3.27,11-10.38,10.82H5c-.42,0-4.29-.45-5-1.84a6.57,6.57,0,0,0,4.84-1.15c-1-.29-2.76-.46-3.07-2.88A2.14,2.14,0,0,0,3,8.9C1.76,8.07.38,7.37.46,5.22a2,2,0,0,0,1.38.46C1.12,5.44-.19,2.4.92.84,2.79,2.65,4.77,4.36,8.29,4.53,8.51,2.29,9.46.79,11.28.15Z" transform="translate(0 0)"/></svg>